:FULLY-SPECIFIED
:FORCE-ALL-JOINTS-BE-3DOF
:DEGREES
2446
root 2.43158 15.0531 -23.6365 949.216 83.1883 -127.136
lfemur -30.574 22.7935 -14.8085
ltibia 69.809 0 0
lfoot -24.9902 18.7349 0
ltoes -30.719 0 0
rfemur -51.4362 -23.589 10.8092
rtibia 53.0202 0 0
rfoot 14.5816 3.96468 0
rtoes 6.95085 0 0
lowerback 18.0301 0.788714 -3.37058
upperback -0.00747816 0.829334 3.74927
thorax -10.2948 0.716714 5.76638
lowerneck 3.97808 -13.0883 -15.2566
upperneck 0.780648 -18.2357 14.0908
head 2.30015 -9.23813 6.07413
lclavicle 1.01344e-14 7.77228e-15 0
lhumerus -27.2536 -63.5096 109.392
lradius 95.8471 0 0
lwrist 57.4255 0 0
lhand -4.85977 414.821 0
lfingers 7.12502 0 0
lthumb 20.9292 -636.207 0
rclavicle 1.01344e-14 7.77228e-15 0
rhumerus 16.5693 17.2497 -68.5181
rradius 114.804 0 0
rwrist -5.52062 0 0
rhand -27.0428 -404.432 0
rfingers 7.12502 0 0
rthumb -0.458802 285.934 0
2447
root 2.50252 15.0321 -23.6376 948.164 83.0898 -128.119
lfemur -30.3848 22.6723 -14.6525
ltibia 69.7881 0 0
lfoot -25.0931 18.5851 0
ltoes -31.0644 0 0
rfemur -50.5088 -23.1228 10.3513
rtibia 52.1322 0 0
rfoot 15.3686 3.59985 0
rtoes 7.35623 0 0
lowerback 17.9226 0.723019 -3.46013
upperback -0.051168 0.725441 3.75869
thorax -10.2665 0.671739 5.85841
lowerneck 3.90661 -13.0611 -15.2995
upperneck 0.979114 -18.2016 13.9531
head 2.35566 -9.2185 6.03072
lclavicle 1.008e-14 8.43327e-15 0
lhumerus -28.2733 -62.9902 109.77
lradius 96.817 0 0
lwrist 58.4441 0 0
lhand -4.5171 415.496 0
lfingers 7.12502 0 0
lthumb 21.2585 -635.572 0
rclavicle 1.008e-14 8.43327e-15 0
rhumerus 15.29 16.3307 -69.0208
rradius 115.615 0 0
rwrist -2.57705 0 0
rhand -27.956 -404.463 0
rfingers 7.12502 0 0
rthumb -1.34031 285.911 0
2448
root 2.57346 15.0111 -23.6387 947.026 82.993 -129.22
lfemur -30.2641 22.528 -14.4884
ltibia 69.8071 0 0
lfoot -25.1908 18.4204 0
ltoes -31.4523 0 0
rfemur -49.5283 -22.661 9.93352
rtibia 51.3432 0 0
rfoot 16.0363 3.15898 0
rtoes 7.68289 0 0
lowerback 17.8042 0.665239 -3.54496
upperback -0.101528 0.631769 3.75742
thorax -10.2386 0.631069 5.93391
lowerneck 3.83275 -13.0375 -15.3365
upperneck 1.17253 -18.1714 13.8137
head 2.40993 -9.20072 5.98561
lclavicle 9.95521e-15 9.03132e-15 0
lhumerus -29.3161 -62.3243 110.126
lradius 97.8052 0 0
lwrist 59.4199 0 0
lhand -4.21789 416.092 0
lfingers 7.12502 0 0
lthumb 21.5458 -635.018 0
rclavicle 9.95521e-15 9.03132e-15 0
rhumerus 14.1328 15.4205 -69.4307
rradius 116.387 0 0
rwrist 0.308604 0 0
rhand -28.8474 -404.487 0
rfingers 7.12502 0 0
rthumb -2.20076 285.896 0
2449
root 2.6444 14.9901 -23.6398 945.792 82.8985 -130.442
lfemur -30.1974 22.3709 -14.3164
ltibia 69.874 0 0
lfoot -25.2975 18.2496 0
ltoes -31.8786 0 0
rfemur -48.5174 -22.217 9.54336
rtibia 50.6369 0 0
rfoot 16.6021 2.67657 0
rtoes 7.96544 0 0
lowerback 17.6763 0.611552 -3.62893
upperback -0.158517 0.542791 3.7483
thorax -10.2116 0.592417 5.99957
lowerneck 3.75799 -13.0189 -15.3697
upperneck 1.36379 -18.1478 13.6725
head 2.46411 -9.18608 5.93879
lclavicle 9.76975e-15 9.56452e-15 0
lhumerus -30.4069 -61.5279 110.474
lradius 98.8184 0 0
lwrist 60.397 0 0
lhand -3.93018 416.61 0
lfingers 7.12502 0 0
lthumb 21.8216 -634.547 0
rclavicle 9.76975e-15 9.56452e-15 0
rhumerus 13.0529 14.4718 -69.7731
rradius 117.089 0 0
rwrist 3.20376 0 0
rhand -29.737 -404.515 0
rfingers 7.12502 0 0
rthumb -3.05952 285.877 0
2450
root 2.71534 14.9691 -23.641 944.452 82.8071 -131.792
lfemur -30.1702 22.2112 -14.1372
ltibia 69.9966 0 0
lfoot -25.4277 18.0815 0
ltoes -32.3395 0 0
rfemur -47.4986 -21.804 9.16818
rtibia 49.9972 0 0
rfoot 17.0833 2.18714 0
rtoes 8.23848 0 0
lowerback 17.5397 0.55814 -3.71588
upperback -0.222092 0.452983 3.7342
thorax -10.1858 0.553499 6.06202
lowerneck 3.68381 -13.0069 -15.4009
upperneck 1.55577 -18.1333 13.5295
head 2.51933 -9.17589 5.89027
lclavicle 9.53346e-15 1.0031e-14 0
lhumerus -31.57 -60.6171 110.827
lradius 99.8634 0 0
lwrist 61.4193 0 0
lhand -3.62201 417.052 0
lfingers 7.12502 0 0
lthumb 22.1166 -634.158 0
rclavicle 9.53346e-15 1.0031e-14 0
rhumerus 12.0055 13.4373 -70.0734
rradius 117.686 0 0
rwrist 6.17583 0 0
rhand -30.6449 -404.557 0
rfingers 7.12502 0 0
rthumb -3.93592 285.846 0
2451
root 2.78629 14.9482 -23.6421 942.996 82.7193 -133.274
lfemur -30.1677 22.0593 -13.9513
ltibia 70.183 0 0
lfoot -25.5957 17.9249 0
ltoes -32.8311 0 0
rfemur -46.4946 -21.4354 8.79537
rtibia 49.4078 0 0
rfoot 17.4975 1.72517 0
rtoes 8.53662 0 0
lowerback 17.3955 0.50118 -3.80968
upperback -0.292213 0.356817 3.71796
thorax -10.1619 0.512027 6.12794
lowerneck 3.61169 -13.003 -15.4321
upperneck 1.75136 -18.1304 13.3847
head 2.57672 -9.17142 5.84004
lclavicle 9.25614e-15 1.04288e-14 0
lhumerus -32.8301 -59.6081 111.196
lradius 100.947 0 0
lwrist 62.531 0 0
lhand -3.26141 417.422 0
lfingers 7.12502 0 0
lthumb 22.4616 -633.852 0
rclavicle 9.25614e-15 1.04288e-14 0
rhumerus 10.9457 12.2697 -70.3572
rradius 118.146 0 0
rwrist 9.29222 0 0
rhand -31.5911 -404.622 0
rfingers 7.12502 0 0
rthumb -4.84933 285.791 0
